<svg width="35" height="35" viewBox="0 0 35 35" fill="none" xmlns="http://www.w3.org/2000/svg">
<path d="M20.0934 34.2292V30.3646H23.958V34.2292H20.0934ZM16.2288 30.3646V20.9792H20.0934V30.3646H16.2288ZM31.1351 22.6354V17.1146H34.9997V22.6354H31.1351ZM27.2705 17.1146V13.25H31.1351V17.1146H27.2705ZM4.63509 20.9792V17.1146H8.49967V20.9792H4.63509ZM0.770508 17.1146V13.25H4.63509V17.1146H0.770508ZM17.8851 3.86458V0H21.7497V3.86458H17.8851ZM2.31634 10.0479H10.8184V1.54583H2.31634V10.0479ZM0.770508 11.5938V0H12.3643V11.5938H0.770508ZM2.31634 32.6833H11.2601V24.1813H2.31634V32.6833ZM0.770508 34.2292V22.6354H12.8059V34.2292H0.770508ZM24.9518 10.0479H33.4538V1.54583H24.9518V10.0479ZM23.4059 11.5938V0H34.9997V11.5938H23.4059ZM27.2705 34.2292V26.5H23.4059V22.6354H31.1351V30.3646H34.9997V34.2292H27.2705ZM20.0934 20.9792V17.1146H27.2705V20.9792H20.0934ZM12.3643 20.9792V17.1146H8.49967V13.25H20.0934V17.1146H16.2288V20.9792H12.3643ZM14.0205 11.5938V3.86458H17.8851V7.72917H21.7497V11.5938H14.0205ZM5.24238 7.12188V4.47188H7.89238V7.12188H5.24238ZM5.62884 29.3708V26.7208H8.27884V29.3708H5.62884ZM27.8778 7.12188V4.47188H30.5278V7.12188H27.8778Z" fill="#E3E3E3"/>
</svg>
