<?xml version="1.0" encoding="UTF-8"?>
<svg id="Layer_1" data-name="Layer 1" xmlns="http://www.w3.org/2000/svg" viewBox="0 0 522.58 516.83">
  <defs>
    <style>
      .cls-1 {
        fill: #fff;
      }

      .cls-2 {
        fill: #a60063;
      }
    </style>
  </defs>
  <path id="BG" class="cls-2" d="M395.92,482.03H127.3c-47.25,0-85.44-38.19-85.44-85.44V128.6c0-47.25,38.19-85.44,85.44-85.44H395.28c47.25,0,85.44,38.19,85.44,85.44V396.58c.65,47.25-37.54,85.44-84.8,85.44Z"/>
  <path id="Y" class="cls-1" d="M238.96,173.82c2.9-.58,5.8,2.32,4.64,5.22-2.32,10.45-5.22,20.9-7.55,31.35-7.55,31.35-15.09,63.27-23.22,94.62-2.32,8.71-5.8,16.83-9.29,24.96-6.39,13.35-17.41,20.32-31.93,20.32-19.74,.58-45.28,1.16-57.47,1.16-2.9,0-5.22-2.32-5.22-5.22l-1.16-25.54c0-2.9,1.74-5.22,4.64-5.8,3.48-.58,21.48-1.16,33.67-1.16,4.64,0,8.13-5.22,6.39-9.87-11.61-24.96-41.21-91.13-45.28-103.9-1.16-2.9,1.16-5.8,4.06-6.39,9.87-1.74,25.54-3.48,40.05-5.8,2.9-.58,5.22,1.16,6.39,4.06,5.22,23.22,20.9,65.59,20.9,65.59h2.32c1.16-5.8,6.39-52.24,9.29-70.24,.58-4.06,2.32-5.22,5.8-5.8,14.51-1.74,28.44-4.64,42.95-7.55"/>
  <g>
    <path class="cls-1" d="M416.3,228.52c-6.17-24.09-21.47-39.74-45.9-45.56-21.92-5.25-44.07-5.25-66,.11-23.98,5.82-39.16,20.9-45.44,44.65-6.28,23.64-6.28,47.39,.57,70.91,6.51,22.15,21.12,36.65,43.73,42.02,11.19,2.63,28.47,6,59.72,2.06,27.29-4.57,45.9-19.3,53.1-46.59,5.94-22.38,5.94-45.1,.23-67.6Z"/>
    <path class="cls-2" d="M323.64,308.2c-1.82,0-3.55-.73-4.87-2.03-2.36-2.32-2.67-6.16-.73-8.9l17.2-23.98-28.54-2.76c-3.1-.28-5.67-2.31-6.66-5.31-1.01-3-.19-6.16,2.15-8.28l44.39-39.8c1.25-1.15,2.91-1.8,4.65-1.8,1.84,0,3.57,.73,4.89,2.05,2.34,2.31,2.65,6.14,.71,8.88l-17.2,23.98,28.52,2.74c3.12,.29,5.69,2.34,6.69,5.34,.99,2.98,.16,6.16-2.17,8.26l-44.39,39.8c-1.23,1.15-2.9,1.8-4.65,1.8Z"/>
  </g>
</svg>